# xmcd
#
# Track frame offsets: 
#        150
#        21335
#        33322
#        71560
#        94897
#        112510
#        126797
#        140047
#        163060
#        182960
#        204710
#        216410
#
# Disc length: 3472 seconds
#
# Revision: 1
# Processed by: cddbd v1.5.2PL0 Copyright (c) Steve Scherf et al.
# Submitted via: ExactAudioCopy v0.99pb5
#
DISCID=b30d8e0c
DTITLE=Pete York - String Time In New York
DYEAR=1983
DGENRE=Jazz
TTITLE0=Space Race
TTITLE1=Do Something About It
TTITLE2=It Ain´t No Use
TTITLE3=Another Star
TTITLE4=Fast And Loose
TTITLE5=Another Song
TTITLE6=Just Ain´t Room
TTITLE7=Wade In The Water
TTITLE8=New Years Day Celebration
TTITLE9=Something
TTITLE10=Every Little Thing
TTITLE11=Ebony Slide
EXTD=YEAR: 1983
EXTT0=
EXTT1=
EXTT2=
EXTT3=
EXTT4=
EXTT5=
EXTT6=
EXTT7=
EXTT8=
EXTT9=
EXTT10=
EXTT11=
PLAYORDER=
